<svg width="553" height="520" viewBox="0 0 553 520" fill="none" xmlns="http://www.w3.org/2000/svg">
<ellipse cx="243.5" cy="276" rx="243.5" ry="244" fill="#E8C5E5"/>
<ellipse cx="309.5" cy="244" rx="243.5" ry="244" fill="#F19ED2" fill-opacity="0.5"/>
<ellipse cx="274.5" cy="251" rx="243.5" ry="244" fill="#F19ED2" fill-opacity="0.5"/>
<path d="M185 355.7C187.6 355 190 354 192.2 352.6C190 351.2 187.5 350.2 185 349.5C182.4 348.8 180.4 346.8 179.7 344.2C179 341.7 178 339.2 176.6 337C175.2 339.2 174.2 341.7 173.5 344.2C172.8 346.8 170.8 348.8 168.2 349.5C165.6 350.2 163.2 351.2 161 352.6C163.2 354 165.7 355 168.2 355.7C170.8 356.4 172.8 358.4 173.5 361C174.1 363.6 175.2 366 176.6 368.2C178 366 179 363.5 179.7 361C180.4 358.4 182.4 356.4 185 355.7Z" fill="#C2D9F0"/>
<path d="M205.7 378.2C208.793 378.2 211.3 375.693 211.3 372.6C211.3 369.507 208.793 367 205.7 367C202.607 367 200.1 369.507 200.1 372.6C200.1 375.693 202.607 378.2 205.7 378.2Z" fill="#C2D9F0"/>
<path d="M449.125 227.291L423.787 214.871C422.548 214.252 421.119 214.395 420.024 215.204L373.062 249.181C371.967 249.99 371.395 251.322 371.586 252.654L375.348 279.683C375.444 280.302 375.682 280.826 376.015 281.349L434.741 362.436C435.932 364.054 438.218 364.434 439.885 363.245L507.613 314.231C509.232 313.041 509.613 310.757 508.422 309.092L449.125 227.291Z" fill="#F27932"/>
<path d="M509.994 244.041C512.471 243.328 514.9 242.233 517.091 240.758C514.947 239.283 512.471 238.236 509.994 237.474C507.422 236.761 505.469 234.619 504.803 231.907C504.136 229.147 503.136 226.625 501.754 224.341C500.373 226.672 499.373 229.29 498.706 231.907C498.039 234.667 496.039 236.761 493.515 237.474C491.038 238.188 488.609 239.283 486.418 240.758C488.561 242.233 491.038 243.28 493.515 244.041C496.087 244.755 498.039 246.897 498.706 249.609C499.373 252.226 500.373 254.891 501.754 257.175C503.136 254.843 504.136 252.226 504.803 249.609C505.469 246.897 507.422 244.803 509.994 244.041Z" fill="#C2D9F0"/>
<path d="M357.535 281.825C359.393 281.349 361.203 280.492 362.87 279.398C361.203 278.256 359.393 277.494 357.535 276.971C355.583 276.4 354.154 274.83 353.582 272.783C353.106 270.785 352.296 268.881 351.296 267.073C350.296 268.834 349.486 270.785 349.01 272.783C348.486 274.83 347.009 276.4 345.057 276.971C343.199 277.447 341.389 278.303 339.722 279.398C341.389 280.54 343.199 281.301 345.057 281.825C347.009 282.396 348.438 283.966 349.01 286.012C349.486 288.011 350.296 289.914 351.296 291.723C352.296 289.962 353.106 288.011 353.582 286.012C354.106 283.966 355.583 282.348 357.535 281.825Z" fill="#F7C689"/>
<path d="M344.104 240.853C358.861 240.853 370.824 228.049 370.824 212.254C370.824 196.459 358.861 183.654 344.104 183.654C329.347 183.654 317.385 196.459 317.385 212.254C317.385 228.049 329.347 240.853 344.104 240.853Z" stroke="#C2D9F0" stroke-miterlimit="10"/>
<path d="M355.392 205.401C354.201 202.451 350.963 201.214 348.2 202.451C345.914 203.593 344.247 206.639 343.866 209.589C342.008 207.4 339.151 205.687 336.579 206.115C333.626 206.639 331.673 209.589 332.054 212.73C332.53 215.157 334.34 216.917 336.198 218.202C339.532 220.391 347.533 222.818 347.533 222.818C349.677 220.201 352.963 216.061 354.63 212.397C355.583 210.255 356.202 207.733 355.392 205.401Z" fill="#F7C689"/>
<path d="M450.554 221.105L425.215 208.685C423.977 208.066 422.548 208.209 421.453 209.018L374.491 242.994C373.396 243.803 372.824 245.136 373.015 246.468L376.777 273.497C376.873 274.116 377.111 274.639 377.444 275.163L436.17 356.25C437.361 357.868 439.647 358.248 441.314 357.059L509.042 308.045C510.661 306.855 511.042 304.571 509.851 302.906L450.554 221.105Z" fill="#F7C689"/>
<path d="M379.921 272.26L447.648 223.246" stroke="#F27932" stroke-miterlimit="10" stroke-dasharray="4 4"/>
<path d="M404.021 238.807C406.783 238.807 409.022 236.57 409.022 233.81C409.022 231.051 406.783 228.814 404.021 228.814C401.259 228.814 399.02 231.051 399.02 233.81C399.02 236.57 401.259 238.807 404.021 238.807Z" fill="white"/>
<path d="M446.839 255.319C448.363 259.221 452.745 261.363 456.793 260.078C461.08 258.746 465.652 261.22 466.938 265.455C467.557 267.644 467.367 269.928 466.224 271.832C464.128 275.496 465.176 280.159 468.7 282.539C472.415 285.061 473.32 290.105 470.796 293.817C469.51 295.625 467.557 296.91 465.319 297.243C461.127 297.861 458.174 301.668 458.46 305.856C458.793 310.329 455.46 314.183 450.935 314.564C448.696 314.707 446.458 313.946 444.838 312.375C441.743 309.52 436.932 309.52 433.836 312.375C430.55 315.373 425.406 315.23 422.358 311.947C420.834 310.281 420.024 308.092 420.167 305.856C420.453 301.668 417.5 297.861 413.308 297.243C408.879 296.529 405.783 292.389 406.497 288.011C406.831 285.774 408.117 283.823 409.927 282.539C413.451 280.159 414.499 275.448 412.403 271.832C410.165 267.93 411.546 262.981 415.404 260.744C417.357 259.602 419.595 259.412 421.786 260.03C425.835 261.315 430.216 259.174 431.741 255.272C433.36 251.084 438.123 249.038 442.266 250.656C444.314 251.56 445.981 253.226 446.839 255.319Z" fill="#F27932"/>
<path d="M436.932 296.624H432.503L441.504 270.88H445.981L436.932 296.624Z" fill="white"/>
<path d="M429.359 271.737C426.359 271.737 423.882 274.211 423.882 277.209C423.882 280.207 426.359 282.681 429.359 282.681C432.36 282.681 434.836 280.207 434.836 277.209C434.836 274.163 432.36 271.737 429.359 271.737ZM429.359 279.35C428.168 279.35 427.168 278.351 427.168 277.161C427.168 275.972 428.168 274.972 429.359 274.972C430.55 274.972 431.55 275.972 431.55 277.161C431.598 278.399 430.55 279.35 429.359 279.35Z" fill="white"/>
<path d="M449.125 285.727C446.124 285.727 443.648 288.201 443.648 291.199C443.648 294.197 446.124 296.672 449.125 296.672C452.125 296.672 454.602 294.197 454.602 291.199C454.555 288.106 452.078 285.727 449.125 285.727ZM449.125 293.388C447.934 293.388 446.934 292.389 446.934 291.199C446.934 290.01 447.934 289.01 449.125 289.01C450.316 289.01 451.316 290.01 451.316 291.199C451.316 292.389 450.316 293.388 449.125 293.388Z" fill="white"/>
<path d="M344.961 339.357L345.533 326.984L335.15 333.599L332.054 328.317L343.009 322.701L332.054 317.086L335.15 311.804L345.533 318.561L344.961 306.189H351.058L350.486 318.561L360.917 311.757L364.013 317.039L352.963 322.654L364.013 328.269L360.917 333.599L350.534 326.984L351.106 339.357H344.961Z" stroke="#C2D9F0" stroke-miterlimit="10"/>
<path d="M213.248 282.536L205.472 297.576V305H200V297.576L192.224 282.536H198.432L202.784 291.944L207.104 282.536H213.248ZM223.581 305.256C221.831 305.256 220.253 304.883 218.845 304.136C217.458 303.389 216.359 302.323 215.549 300.936C214.759 299.549 214.365 297.928 214.365 296.072C214.365 294.237 214.77 292.627 215.581 291.24C216.391 289.832 217.501 288.755 218.909 288.008C220.317 287.261 221.895 286.888 223.645 286.888C225.394 286.888 226.973 287.261 228.381 288.008C229.789 288.755 230.898 289.832 231.709 291.24C232.519 292.627 232.925 294.237 232.925 296.072C232.925 297.907 232.509 299.528 231.677 300.936C230.866 302.323 229.746 303.389 228.317 304.136C226.909 304.883 225.33 305.256 223.581 305.256ZM223.581 300.52C224.626 300.52 225.511 300.136 226.237 299.368C226.983 298.6 227.357 297.501 227.357 296.072C227.357 294.643 226.994 293.544 226.269 292.776C225.565 292.008 224.69 291.624 223.645 291.624C222.578 291.624 221.693 292.008 220.989 292.776C220.285 293.523 219.933 294.621 219.933 296.072C219.933 297.501 220.274 298.6 220.957 299.368C221.661 300.136 222.535 300.52 223.581 300.52ZM253.46 287.144V305H247.988V302.568C247.433 303.357 246.676 303.997 245.716 304.488C244.777 304.957 243.732 305.192 242.58 305.192C241.214 305.192 240.009 304.893 238.964 304.296C237.918 303.677 237.108 302.792 236.532 301.64C235.956 300.488 235.668 299.133 235.668 297.576V287.144H241.108V296.84C241.108 298.035 241.417 298.963 242.036 299.624C242.654 300.285 243.486 300.616 244.532 300.616C245.598 300.616 246.441 300.285 247.06 299.624C247.678 298.963 247.988 298.035 247.988 296.84V287.144H253.46ZM262.862 290.12C263.502 289.139 264.302 288.371 265.262 287.816C266.222 287.24 267.289 286.952 268.462 286.952V292.744H266.958C265.593 292.744 264.569 293.043 263.886 293.64C263.204 294.216 262.862 295.24 262.862 296.712V305H257.39V287.144H262.862V290.12ZM276.931 293.736C276.931 291.517 277.411 289.544 278.371 287.816C279.331 286.067 280.664 284.712 282.371 283.752C284.099 282.771 286.051 282.28 288.227 282.28C290.894 282.28 293.176 282.984 295.075 284.392C296.974 285.8 298.243 287.72 298.883 290.152H292.867C292.419 289.213 291.779 288.499 290.947 288.008C290.136 287.517 289.208 287.272 288.163 287.272C286.478 287.272 285.112 287.859 284.067 289.032C283.022 290.205 282.499 291.773 282.499 293.736C282.499 295.699 283.022 297.267 284.067 298.44C285.112 299.613 286.478 300.2 288.163 300.2C289.208 300.2 290.136 299.955 290.947 299.464C291.779 298.973 292.419 298.259 292.867 297.32H298.883C298.243 299.752 296.974 301.672 295.075 303.08C293.176 304.467 290.894 305.16 288.227 305.16C286.051 305.16 284.099 304.68 282.371 303.72C280.664 302.739 279.331 301.384 278.371 299.656C277.411 297.928 276.931 295.955 276.931 293.736ZM310.362 305.256C308.613 305.256 307.034 304.883 305.626 304.136C304.239 303.389 303.141 302.323 302.33 300.936C301.541 299.549 301.146 297.928 301.146 296.072C301.146 294.237 301.551 292.627 302.362 291.24C303.173 289.832 304.282 288.755 305.69 288.008C307.098 287.261 308.677 286.888 310.426 286.888C312.175 286.888 313.754 287.261 315.162 288.008C316.57 288.755 317.679 289.832 318.49 291.24C319.301 292.627 319.706 294.237 319.706 296.072C319.706 297.907 319.29 299.528 318.458 300.936C317.647 302.323 316.527 303.389 315.098 304.136C313.69 304.883 312.111 305.256 310.362 305.256ZM310.362 300.52C311.407 300.52 312.293 300.136 313.018 299.368C313.765 298.6 314.138 297.501 314.138 296.072C314.138 294.643 313.775 293.544 313.05 292.776C312.346 292.008 311.471 291.624 310.426 291.624C309.359 291.624 308.474 292.008 307.77 292.776C307.066 293.523 306.714 294.621 306.714 296.072C306.714 297.501 307.055 298.6 307.738 299.368C308.442 300.136 309.317 300.52 310.362 300.52ZM345.393 286.952C347.612 286.952 349.372 287.624 350.673 288.968C351.996 290.312 352.657 292.179 352.657 294.568V305H347.217V295.304C347.217 294.152 346.908 293.267 346.289 292.648C345.692 292.008 344.86 291.688 343.793 291.688C342.726 291.688 341.884 292.008 341.265 292.648C340.668 293.267 340.369 294.152 340.369 295.304V305H334.929V295.304C334.929 294.152 334.62 293.267 334.001 292.648C333.404 292.008 332.572 291.688 331.505 291.688C330.438 291.688 329.596 292.008 328.977 292.648C328.38 293.267 328.081 294.152 328.081 295.304V305H322.609V287.144H328.081V289.384C328.636 288.637 329.361 288.051 330.257 287.624C331.153 287.176 332.166 286.952 333.297 286.952C334.641 286.952 335.836 287.24 336.881 287.816C337.948 288.392 338.78 289.213 339.377 290.28C339.996 289.299 340.838 288.499 341.905 287.88C342.972 287.261 344.134 286.952 345.393 286.952ZM365.444 291.688H362.5V305H357.028V291.688H355.044V287.144H357.028V286.632C357.028 284.435 357.657 282.771 358.916 281.64C360.175 280.488 362.02 279.912 364.452 279.912C364.857 279.912 365.156 279.923 365.348 279.944V284.584C364.303 284.52 363.567 284.669 363.14 285.032C362.713 285.395 362.5 286.045 362.5 286.984V287.144H365.444V291.688ZM376.143 305.256C374.394 305.256 372.815 304.883 371.407 304.136C370.021 303.389 368.922 302.323 368.111 300.936C367.322 299.549 366.927 297.928 366.927 296.072C366.927 294.237 367.333 292.627 368.143 291.24C368.954 289.832 370.063 288.755 371.471 288.008C372.879 287.261 374.458 286.888 376.207 286.888C377.957 286.888 379.535 287.261 380.943 288.008C382.351 288.755 383.461 289.832 384.271 291.24C385.082 292.627 385.487 294.237 385.487 296.072C385.487 297.907 385.071 299.528 384.239 300.936C383.429 302.323 382.309 303.389 380.879 304.136C379.471 304.883 377.893 305.256 376.143 305.256ZM376.143 300.52C377.189 300.52 378.074 300.136 378.799 299.368C379.546 298.6 379.919 297.501 379.919 296.072C379.919 294.643 379.557 293.544 378.831 292.776C378.127 292.008 377.253 291.624 376.207 291.624C375.141 291.624 374.255 292.008 373.551 292.776C372.847 293.523 372.495 294.621 372.495 296.072C372.495 297.501 372.837 298.6 373.519 299.368C374.223 300.136 375.098 300.52 376.143 300.52ZM393.862 290.12C394.502 289.139 395.302 288.371 396.262 287.816C397.222 287.24 398.289 286.952 399.462 286.952V292.744H397.958C396.593 292.744 395.569 293.043 394.886 293.64C394.204 294.216 393.862 295.24 393.862 296.712V305H388.39V287.144H393.862V290.12ZM412.03 300.36V305H409.246C407.262 305 405.715 304.52 404.606 303.56C403.496 302.579 402.942 300.989 402.942 298.792V291.688H400.766V287.144H402.942V282.792H408.414V287.144H411.998V291.688H408.414V298.856C408.414 299.389 408.542 299.773 408.798 300.008C409.054 300.243 409.48 300.36 410.078 300.36H412.03ZM219.424 330.536V353H213.952V339.528L208.928 353H204.512L199.456 339.496V353H193.984V330.536H200.448L206.752 346.088L212.992 330.536H219.424ZM222.271 344.04C222.271 342.205 222.612 340.595 223.295 339.208C223.999 337.821 224.948 336.755 226.143 336.008C227.338 335.261 228.671 334.888 230.143 334.888C231.402 334.888 232.5 335.144 233.439 335.656C234.399 336.168 235.135 336.84 235.647 337.672V335.144H241.119V353H235.647V350.472C235.114 351.304 234.367 351.976 233.407 352.488C232.468 353 231.37 353.256 230.111 353.256C228.66 353.256 227.338 352.883 226.143 352.136C224.948 351.368 223.999 350.291 223.295 348.904C222.612 347.496 222.271 345.875 222.271 344.04ZM235.647 344.072C235.647 342.707 235.263 341.629 234.495 340.84C233.748 340.051 232.831 339.656 231.743 339.656C230.655 339.656 229.727 340.051 228.959 340.84C228.212 341.608 227.839 342.675 227.839 344.04C227.839 345.405 228.212 346.493 228.959 347.304C229.727 348.093 230.655 348.488 231.743 348.488C232.831 348.488 233.748 348.093 234.495 347.304C235.263 346.515 235.647 345.437 235.647 344.072ZM255.03 348.36V353H252.246C250.262 353 248.715 352.52 247.606 351.56C246.496 350.579 245.942 348.989 245.942 346.792V339.688H243.766V335.144H245.942V330.792H251.414V335.144H254.998V339.688H251.414V346.856C251.414 347.389 251.542 347.773 251.798 348.008C252.054 348.243 252.48 348.36 253.078 348.36H255.03ZM268.03 348.36V353H265.246C263.262 353 261.715 352.52 260.606 351.56C259.496 350.579 258.942 348.989 258.942 346.792V339.688H256.766V335.144H258.942V330.792H264.414V335.144H267.998V339.688H264.414V346.856C264.414 347.389 264.542 347.773 264.798 348.008C265.054 348.243 265.48 348.36 266.078 348.36H268.03ZM287.91 343.784C287.91 344.296 287.878 344.829 287.814 345.384H275.43C275.515 346.493 275.867 347.347 276.486 347.944C277.126 348.52 277.904 348.808 278.822 348.808C280.187 348.808 281.136 348.232 281.67 347.08H287.494C287.195 348.253 286.651 349.309 285.862 350.248C285.094 351.187 284.123 351.923 282.95 352.456C281.776 352.989 280.464 353.256 279.014 353.256C277.264 353.256 275.707 352.883 274.342 352.136C272.976 351.389 271.91 350.323 271.142 348.936C270.374 347.549 269.99 345.928 269.99 344.072C269.99 342.216 270.363 340.595 271.11 339.208C271.878 337.821 272.944 336.755 274.31 336.008C275.675 335.261 277.243 334.888 279.014 334.888C280.742 334.888 282.278 335.251 283.622 335.976C284.966 336.701 286.011 337.736 286.758 339.08C287.526 340.424 287.91 341.992 287.91 343.784ZM282.31 342.344C282.31 341.405 281.99 340.659 281.35 340.104C280.71 339.549 279.91 339.272 278.95 339.272C278.032 339.272 277.254 339.539 276.614 340.072C275.995 340.605 275.611 341.363 275.462 342.344H282.31ZM296.269 338.12C296.909 337.139 297.709 336.371 298.669 335.816C299.629 335.24 300.695 334.952 301.869 334.952V340.744H300.365C298.999 340.744 297.975 341.043 297.293 341.64C296.61 342.216 296.269 343.24 296.269 344.712V353H290.797V335.144H296.269V338.12ZM311.748 353.256C310.191 353.256 308.804 352.989 307.588 352.456C306.372 351.923 305.412 351.197 304.708 350.28C304.004 349.341 303.609 348.296 303.524 347.144H308.932C308.996 347.763 309.284 348.264 309.796 348.648C310.308 349.032 310.937 349.224 311.684 349.224C312.367 349.224 312.889 349.096 313.252 348.84C313.636 348.563 313.828 348.211 313.828 347.784C313.828 347.272 313.561 346.899 313.028 346.664C312.495 346.408 311.631 346.131 310.436 345.832C309.156 345.533 308.089 345.224 307.236 344.904C306.383 344.563 305.647 344.04 305.028 343.336C304.409 342.611 304.1 341.64 304.1 340.424C304.1 339.4 304.377 338.472 304.932 337.64C305.508 336.787 306.34 336.115 307.428 335.624C308.537 335.133 309.849 334.888 311.364 334.888C313.604 334.888 315.364 335.443 316.644 336.552C317.945 337.661 318.692 339.133 318.884 340.968H313.828C313.743 340.349 313.465 339.859 312.996 339.496C312.548 339.133 311.951 338.952 311.204 338.952C310.564 338.952 310.073 339.08 309.732 339.336C309.391 339.571 309.22 339.901 309.22 340.328C309.22 340.84 309.487 341.224 310.02 341.48C310.575 341.736 311.428 341.992 312.58 342.248C313.903 342.589 314.98 342.931 315.812 343.272C316.644 343.592 317.369 344.125 317.988 344.872C318.628 345.597 318.959 346.579 318.98 347.816C318.98 348.861 318.681 349.8 318.084 350.632C317.508 351.443 316.665 352.083 315.556 352.552C314.468 353.021 313.199 353.256 311.748 353.256ZM345.269 330.536V334.92H339.317V353H333.845V334.92H327.893V330.536H345.269ZM358.991 334.952C361.039 334.952 362.682 335.635 363.919 337C365.157 338.344 365.775 340.2 365.775 342.568V353H360.335V343.304C360.335 342.109 360.026 341.181 359.407 340.52C358.789 339.859 357.957 339.528 356.911 339.528C355.866 339.528 355.034 339.859 354.415 340.52C353.797 341.181 353.487 342.109 353.487 343.304V353H348.015V329.32H353.487V337.544C354.042 336.755 354.799 336.125 355.759 335.656C356.719 335.187 357.797 334.952 358.991 334.952ZM386.41 343.784C386.41 344.296 386.378 344.829 386.314 345.384H373.93C374.015 346.493 374.367 347.347 374.986 347.944C375.626 348.52 376.404 348.808 377.322 348.808C378.687 348.808 379.636 348.232 380.17 347.08H385.994C385.695 348.253 385.151 349.309 384.362 350.248C383.594 351.187 382.623 351.923 381.45 352.456C380.276 352.989 378.964 353.256 377.514 353.256C375.764 353.256 374.207 352.883 372.842 352.136C371.476 351.389 370.41 350.323 369.642 348.936C368.874 347.549 368.49 345.928 368.49 344.072C368.49 342.216 368.863 340.595 369.61 339.208C370.378 337.821 371.444 336.755 372.81 336.008C374.175 335.261 375.743 334.888 377.514 334.888C379.242 334.888 380.778 335.251 382.122 335.976C383.466 336.701 384.511 337.736 385.258 339.08C386.026 340.424 386.41 341.992 386.41 343.784ZM380.81 342.344C380.81 341.405 380.49 340.659 379.85 340.104C379.21 339.549 378.41 339.272 377.45 339.272C376.532 339.272 375.754 339.539 375.114 340.072C374.495 340.605 374.111 341.363 373.962 342.344H380.81ZM421.518 330.536V353H416.046V339.528L411.022 353H406.606L401.55 339.496V353H396.078V330.536H402.542L408.846 346.088L415.086 330.536H421.518ZM433.581 353.256C431.831 353.256 430.253 352.883 428.845 352.136C427.458 351.389 426.359 350.323 425.549 348.936C424.759 347.549 424.365 345.928 424.365 344.072C424.365 342.237 424.77 340.627 425.581 339.24C426.391 337.832 427.501 336.755 428.909 336.008C430.317 335.261 431.895 334.888 433.645 334.888C435.394 334.888 436.973 335.261 438.381 336.008C439.789 336.755 440.898 337.832 441.709 339.24C442.519 340.627 442.925 342.237 442.925 344.072C442.925 345.907 442.509 347.528 441.677 348.936C440.866 350.323 439.746 351.389 438.317 352.136C436.909 352.883 435.33 353.256 433.581 353.256ZM433.581 348.52C434.626 348.52 435.511 348.136 436.237 347.368C436.983 346.6 437.357 345.501 437.357 344.072C437.357 342.643 436.994 341.544 436.269 340.776C435.565 340.008 434.69 339.624 433.645 339.624C432.578 339.624 431.693 340.008 430.989 340.776C430.285 341.523 429.933 342.621 429.933 344.072C429.933 345.501 430.274 346.6 430.957 347.368C431.661 348.136 432.535 348.52 433.581 348.52ZM453.092 353.256C451.534 353.256 450.148 352.989 448.932 352.456C447.716 351.923 446.756 351.197 446.052 350.28C445.348 349.341 444.953 348.296 444.868 347.144H450.276C450.34 347.763 450.628 348.264 451.14 348.648C451.652 349.032 452.281 349.224 453.028 349.224C453.71 349.224 454.233 349.096 454.596 348.84C454.98 348.563 455.172 348.211 455.172 347.784C455.172 347.272 454.905 346.899 454.372 346.664C453.838 346.408 452.974 346.131 451.78 345.832C450.5 345.533 449.433 345.224 448.58 344.904C447.726 344.563 446.99 344.04 446.372 343.336C445.753 342.611 445.444 341.64 445.444 340.424C445.444 339.4 445.721 338.472 446.276 337.64C446.852 336.787 447.684 336.115 448.772 335.624C449.881 335.133 451.193 334.888 452.708 334.888C454.948 334.888 456.708 335.443 457.988 336.552C459.289 337.661 460.036 339.133 460.228 340.968H455.172C455.086 340.349 454.809 339.859 454.34 339.496C453.892 339.133 453.294 338.952 452.548 338.952C451.908 338.952 451.417 339.08 451.076 339.336C450.734 339.571 450.564 339.901 450.564 340.328C450.564 340.84 450.83 341.224 451.364 341.48C451.918 341.736 452.772 341.992 453.924 342.248C455.246 342.589 456.324 342.931 457.156 343.272C457.988 343.592 458.713 344.125 459.332 344.872C459.972 345.597 460.302 346.579 460.324 347.816C460.324 348.861 460.025 349.8 459.428 350.632C458.852 351.443 458.009 352.083 456.9 352.552C455.812 353.021 454.542 353.256 453.092 353.256ZM473.624 348.36V353H470.84C468.856 353 467.309 352.52 466.2 351.56C465.09 350.579 464.536 348.989 464.536 346.792V339.688H462.36V335.144H464.536V330.792H470.008V335.144H473.592V339.688H470.008V346.856C470.008 347.389 470.136 347.773 470.392 348.008C470.648 348.243 471.074 348.36 471.672 348.36H473.624Z" fill="white"/>
</svg>
