<svg width="23" height="24" viewBox="0 0 23 24" fill="none" xmlns="http://www.w3.org/2000/svg">
<path d="M10.5658 5.90765C10.6639 6.1431 10.9416 6.25874 11.1776 6.16077C11.4136 6.06276 11.529 5.78498 11.4311 5.54859C11.3336 5.31299 11.0545 5.19745 10.819 5.29546C10.5823 5.39395 10.4689 5.67107 10.5658 5.90765Z" fill="black"/>
<path d="M20.6889 17.0123H20.6735V16.6956C20.6735 14.4442 18.8402 12.6125 16.5869 12.6125C14.3335 12.6125 12.5003 14.4442 12.5003 16.6956V19.9169C12.5003 21.6514 11.0876 23.0625 9.35119 23.0625C8.08045 23.0625 6.94711 22.2982 6.45712 21.1582C6.95386 20.8995 7.29408 20.3803 7.29408 19.7828V19.0576C8.12175 18.5373 8.67333 17.617 8.67333 16.5698V14.5862C10.3883 14.3569 11.2465 12.9286 11.2851 12.8627C11.4005 12.6658 11.3573 12.4143 11.1827 12.2672L9.12272 10.5319L15.3199 8.4247C16.4472 8.04131 17.7143 8.34366 18.5747 9.15773C19.0536 9.61125 19.7834 10.1326 20.7504 10.3478C21.1435 10.4354 22.1276 10.663 22.1276 9.98039V1.53553C22.1276 1.0155 21.5537 1.05277 21.1936 1.09111C20.2521 1.19039 19.3829 1.60683 18.6022 2.33269C17.7355 3.13983 16.4656 3.43172 15.3415 3.03947L8.12245 0.518484C7.38848 0.183328 6.5775 0 5.73352 0C2.61525 0 0 2.60555 0 5.72841C0 6.38995 0.113203 7.02544 0.320625 7.61709C0.326625 7.6387 0.333937 7.6598 0.342844 7.68005C0.796172 8.92608 1.67062 9.97163 2.79342 10.6445V16.5698C2.79342 17.6253 3.35367 18.5522 4.19236 19.0702V19.7828C4.19236 20.5584 4.7655 21.2028 5.51081 21.3153C6.09267 22.9123 7.62459 24 9.35123 24C11.6046 24 13.4378 22.1683 13.4378 19.9169V16.6956C13.4378 14.9611 14.8505 13.55 16.587 13.55C18.3234 13.55 19.7361 14.9611 19.7361 16.6956V17.0123H19.7206C18.7352 17.0123 17.9335 17.8135 17.9335 18.7982V20.7196C17.9335 20.9785 18.1434 21.1884 18.4023 21.1884H18.8658V21.9868C18.8658 22.2457 19.0756 22.4555 19.3345 22.4555C19.5934 22.4555 19.8033 22.2457 19.8033 21.9868V21.1884H20.5649V21.9868C20.5649 22.2457 20.7748 22.4555 21.0337 22.4555C21.2925 22.4555 21.5024 22.2457 21.5024 21.9868V21.1884H22.0073C22.2662 21.1884 22.476 20.9785 22.476 20.7196V18.7982C22.476 17.8135 21.6743 17.0123 20.6889 17.0123ZM8.67333 13.6378V11.3791L10.2427 12.7012C9.96483 13.023 9.44133 13.4944 8.67333 13.6378ZM18.8708 8.18081V3.32667C19.2043 3.08016 19.4878 2.77777 19.8378 2.55141C20.2465 2.28703 20.7072 2.10427 21.1901 2.03606V9.47592C20.6957 9.4028 20.223 9.21206 19.8051 8.94C19.4652 8.7188 19.1917 8.42517 18.8708 8.18081ZM1.49081 7.96027H3.30844C3.56733 7.96027 3.77719 7.75041 3.77719 7.49152C3.77719 7.23263 3.56733 7.02277 3.30844 7.02277H1.11548C1.04048 6.75614 0.988125 6.48023 0.960469 6.19716H3.26212C3.52102 6.19716 3.73087 5.9873 3.73087 5.72841C3.73087 5.46952 3.52102 5.25966 3.26212 5.25966H0.960469C0.987937 4.97841 1.03983 4.70423 1.11408 4.43925H3.26217C3.52106 4.43925 3.73092 4.22939 3.73092 3.9705C3.73092 3.71161 3.52106 3.50175 3.26217 3.50175H1.48809C2.29195 1.97845 3.8932 0.9375 5.73352 0.9375C7.65572 0.9375 9.43045 2.12231 10.1663 3.89728C10.2531 4.10658 10.4739 4.21969 10.6881 4.17811C10.7187 4.1722 10.7491 4.16311 10.779 4.15069C11.0182 4.05155 11.1316 3.77733 11.0325 3.53817C10.8466 3.08963 10.603 2.66339 10.3108 2.27564L15.0326 3.92456C15.9898 4.25859 17.0168 4.22137 17.9333 3.85214V7.63959C17.0157 7.25695 15.983 7.20886 15.018 7.53703L10.3532 9.12319C10.623 8.75583 10.85 8.35542 11.0259 7.93481C11.1257 7.69598 11.0131 7.42139 10.7742 7.32155C10.539 7.22325 10.2594 7.33697 10.1606 7.57312C9.44573 9.28256 7.74942 10.4523 5.89847 10.5163C4.07812 10.5778 2.34267 9.56972 1.49081 7.96027ZM3.73092 11.0963C5.01483 11.5733 6.45145 11.5743 7.73583 11.0977V14.1494V16.5698C7.73583 17.3618 7.27247 18.0478 6.6023 18.3716C6.11845 18.6055 5.5477 18.6314 5.04338 18.4475C4.27814 18.166 3.73092 17.4306 3.73092 16.5698V11.0963ZM5.12986 19.7828V19.4458C5.532 19.5295 5.95495 19.5283 6.35658 19.4416V19.7828C6.35658 20.1206 6.08152 20.3953 5.74345 20.3953C5.40511 20.3953 5.12986 20.1205 5.12986 19.7828ZM21.5385 20.2509H18.8709V18.7982C18.8709 18.3304 19.2521 17.9498 19.7205 17.9498H20.6889C21.1574 17.9498 21.5385 18.3304 21.5385 18.7982V20.2509Z" fill="black"/>
</svg>
