<svg width="29" height="23" viewBox="0 0 29 23" fill="none" xmlns="http://www.w3.org/2000/svg">
<path d="M5.69932 21.1587H2.25592C1.94309 21.1587 1.68951 21.4123 1.68951 21.7251C1.68951 22.038 1.94309 22.2915 2.25592 22.2915H5.69927C6.01209 22.2915 6.26567 22.038 6.26567 21.7251C6.26567 21.4123 6.01209 21.1587 5.69932 21.1587Z" fill="black"/>
<path d="M8.77257 21.5087C8.67991 21.2824 8.44241 21.1392 8.19897 21.1612C7.96476 21.1825 7.7638 21.3518 7.70263 21.5786C7.64191 21.8038 7.73095 22.0497 7.92002 22.1856C8.11146 22.3232 8.37807 22.3251 8.57178 22.1909C8.78832 22.0411 8.8739 21.7519 8.77257 21.5087Z" fill="black"/>
<path d="M8.25983 18.3214H1.27011C0.957284 18.3214 0.703705 18.575 0.703705 18.8878C0.703705 19.2007 0.957284 19.4543 1.27011 19.4543H8.25983C8.57266 19.4543 8.82624 19.2007 8.82624 18.8878C8.82624 18.575 8.57266 18.3214 8.25983 18.3214Z" fill="black"/>
<path d="M6.08223 16.0505C6.08223 15.7377 5.82865 15.4841 5.51582 15.4841H0.566405C0.25358 15.4841 0 15.7377 0 16.0505C0 16.3633 0.25358 16.6169 0.566405 16.6169H5.51582C5.82865 16.6169 6.08223 16.3633 6.08223 16.0505Z" fill="black"/>
<path d="M28.3227 18.2513C28.2269 15.0403 25.585 12.4576 22.3511 12.4576H19.4772L17.8424 2.63979C17.7567 2.04943 17.4428 1.53287 16.9581 1.18458C16.4714 0.834998 15.8789 0.702799 15.2899 0.812341C14.089 1.03567 13.7585 1.08348 13.6684 1.09209C13.5016 1.10806 13.3503 1.1971 13.2555 1.3353C13.1606 1.47345 13.1318 1.64654 13.1768 1.80802L13.3175 2.31292C12.2887 2.18973 11.3467 1.62966 10.7486 0.753209L10.4025 0.246843C10.3115 0.113624 10.1679 0.0255483 10.0079 0.00476128C9.84791 -0.0161391 9.6866 0.0324017 9.56448 0.137923L6.85599 2.47859C6.55251 2.70646 6.25923 3.00348 5.98413 3.36156C5.98396 3.36173 5.98384 3.36196 5.98367 3.36213C5.21534 4.35985 4.55055 5.85476 4.1684 7.42631C3.74909 7.46528 3.34377 7.65967 3.04805 8.00234L2.39221 8.76229C2.09734 9.10394 1.95353 9.53996 1.98729 9.99003C2.02105 10.4401 2.22824 10.8498 2.5708 11.1437L13.7273 20.7154C13.9165 20.8745 14.1136 21.0224 14.3177 21.1587H10.8204C10.5076 21.1587 10.254 21.4123 10.254 21.7251C10.254 22.038 10.5076 22.2916 10.8204 22.2916H27.3138C28.2436 22.2916 29 21.5351 29 20.6054V19.6016C29 19.0498 28.7336 18.5591 28.3227 18.2513ZM17.3392 6.51445H15.6645L15.2477 5.01892H17.0901L17.3392 6.51445ZM17.5278 7.64726L17.7892 9.21711H16.4178L15.9802 7.64726H17.5278ZM17.9779 10.3499L18.3787 12.7569C18.2041 12.8084 18.0165 12.8061 17.8335 12.7469C17.5287 12.6484 17.3061 12.4145 17.2214 12.1006L16.7335 10.3499H17.9779ZM15.497 1.92606C15.7796 1.87344 16.0637 1.93688 16.2971 2.10459C16.5306 2.27231 16.6815 2.52147 16.7219 2.80614C16.7225 2.81067 16.7232 2.81515 16.724 2.81962L16.9015 3.88611H14.932L14.439 2.11751C14.6854 2.0748 15.0253 2.0138 15.497 1.92606ZM7.58133 3.34893L9.8252 1.40979C10.6985 2.67734 12.1225 3.43565 13.6401 3.47025L13.756 3.88605H13.7224C13.4096 3.88605 13.156 4.13963 13.156 4.45246C13.156 4.76528 13.4096 5.01886 13.7224 5.01886H14.0717L14.4885 6.5144H14.1204C13.8076 6.5144 13.554 6.76798 13.554 7.0808C13.554 7.39363 13.8076 7.64721 14.1204 7.64721H14.8043L15.2418 9.21706H14.5735C14.2607 9.21706 14.0071 9.47063 14.0071 9.78346C14.0071 10.0963 14.2607 10.3499 14.5735 10.3499H15.5576L16.129 12.4001C16.3114 13.0766 16.8184 13.6092 17.485 13.8247C17.5788 13.855 17.6735 13.8783 17.7688 13.8949L17.217 14.6915C17.0388 14.9486 17.1029 15.3015 17.36 15.4796C17.4584 15.5478 17.5708 15.5805 17.682 15.5805C17.8615 15.5805 18.0381 15.4954 18.1481 15.3366L19.3579 13.5903H22.3511C24.8463 13.5903 26.9066 15.4877 27.1652 17.9153H18.0496C17.5035 17.9153 16.972 17.7229 16.5526 17.3733L8.50004 10.4647C9.45568 9.70145 10.0254 8.51737 10.0254 7.22229C10.0254 6.22887 9.66695 5.26933 9.01598 4.52025C8.5961 4.03711 8.07291 3.66164 7.49173 3.41865C7.51053 3.40387 7.52933 3.38948 7.54814 3.37555C7.55952 3.36711 7.57063 3.35822 7.58133 3.34893ZM6.67769 4.33515C7.96116 4.68026 8.89261 5.86705 8.89261 7.22229C8.89261 8.24482 8.41179 9.16885 7.61832 9.70824L5.42248 7.82432C5.37218 7.78116 5.31996 7.74151 5.26626 7.70526C5.57597 6.42309 6.08523 5.20781 6.67769 4.33515ZM27.8672 20.6054C27.8672 20.9105 27.6189 21.1587 27.3138 21.1587H18.0496C16.737 21.1587 15.461 20.6934 14.4608 19.8521L3.30843 10.2839C3.196 10.1875 3.12797 10.053 3.11693 9.90535C3.10583 9.75763 3.15306 9.6145 3.24981 9.50241L3.90565 8.74247C4.01485 8.61599 4.16948 8.55102 4.32501 8.55102C4.45262 8.55102 4.5808 8.59475 4.68491 8.68401L15.8179 18.2356C15.8197 18.2372 15.8216 18.2388 15.8234 18.2403C16.4467 18.7613 17.2373 19.0482 18.0496 19.0482H27.3138C27.6189 19.0482 27.8672 19.2965 27.8672 19.6016V20.6054Z" fill="black"/>
</svg>
