<svg width="24" height="26" viewBox="0 0 24 26" fill="none" xmlns="http://www.w3.org/2000/svg">
<path d="M20.9763 8.72542V3.81921C20.9763 0.99887 19.0079 0 17.1571 0H6.16949C4.31864 0 2.35028 0.99887 2.35028 3.81921V8.72542C0.99887 9.07797 0 10.2825 0 11.7514V19.6249C0 21.9458 1.55706 22.8565 3.08475 22.9446V24.9424C3.08475 25.5299 3.5548 26 4.14237 26H5.22938C5.81695 26 6.287 25.5299 6.287 24.9424V22.9446H17.0689V24.9424C17.0689 25.5299 17.539 26 18.1266 26H19.2136C19.8011 26 20.2712 25.5299 20.2712 24.9424V22.9446C22.5333 22.8271 23.3559 21.1819 23.3559 19.6249V11.722C23.2972 10.2825 22.2983 9.04859 20.9763 8.72542ZM3.40791 3.81921C3.40791 1.41017 5.14124 1.02825 6.16949 1.02825H17.1571C18.1853 1.02825 19.9186 1.38079 19.9186 3.78983V8.60791C18.3322 8.7548 17.0689 10.0768 17.0689 11.722V12.4565H6.25763V11.722C6.25763 10.0768 4.99435 8.7548 3.40791 8.60791V3.81921ZM17.0395 13.5141V17.1571H6.25763V13.5141H17.0395ZM5.22938 24.9424H4.14237V22.9446H5.22938V24.9424ZM19.1842 24.9424H18.0972V22.9446H19.1842V24.9424ZM22.2983 19.6249H22.2689C22.2689 20.6531 21.887 21.9164 19.9774 21.9164H19.1842H18.0972H5.22938H4.14237H3.34915C2.3209 21.9164 1.05763 21.5345 1.05763 19.6249V11.722C1.05763 10.5763 1.99774 9.63616 3.1435 9.63616C4.28927 9.63616 5.22938 10.5763 5.22938 11.722V17.6859C5.22938 17.9797 5.46441 18.2147 5.75819 18.2147H17.5977C17.8915 18.2147 18.1266 17.9797 18.1266 17.6859V11.722C18.1266 10.5763 19.0667 9.63616 20.2124 9.63616C21.3582 9.63616 22.2983 10.5763 22.2983 11.722V19.6249Z" fill="black"/>
</svg>
