<svg width="24" height="24" viewBox="0 0 24 24" fill="none" xmlns="http://www.w3.org/2000/svg">
<path d="M22.4838 1.39536C21.5533 0.495547 20.328 3.05176e-05 19.0336 3.05176e-05C17.7392 3.05176e-05 16.5138 0.495594 15.5833 1.39541L15.5208 1.45583C14.0062 2.92053 13.5816 5.19013 14.4646 7.10338L16.0282 10.4915V21.9033C16.0282 23.0578 16.9674 23.997 18.1219 23.997H19.7463C20.9008 23.997 21.84 23.0578 21.84 21.9033V10.4965L23.4856 7.15705C24.4423 5.21554 24.0398 2.90005 22.4838 1.39536ZM20.9026 21.9033C20.9026 22.5408 20.3838 23.0596 19.7463 23.0596H18.1218C17.4842 23.0596 16.9655 22.5409 16.9655 21.9033V14.7638H19.0287V17.7847C19.0287 18.0435 19.2385 18.2534 19.4974 18.2534C19.7563 18.2534 19.9661 18.0435 19.9661 17.7847V14.7638H20.9025V21.9033H20.9026ZM16.9655 13.8264V10.8459H17.6765C17.6772 10.8459 17.6779 10.846 17.6785 10.846C17.6793 10.846 17.68 10.8459 17.6807 10.8459H20.3238C20.3246 10.8459 20.3253 10.846 20.326 10.846C20.3267 10.846 20.3274 10.8459 20.3281 10.8459H20.9025V13.8264H16.9655ZM22.6447 6.74277L21.0847 9.90857H20.8788L21.2565 7.64216C21.2991 7.38688 21.1266 7.14534 20.8713 7.10277C20.616 7.0603 20.3744 7.23271 20.3319 7.48809L19.9285 9.90857H19.4027V7.5651C19.4027 7.3063 19.1929 7.0964 18.934 7.0964C18.6752 7.0964 18.4653 7.30626 18.4653 7.5651V9.90857H18.0761L17.6727 7.48804C17.6302 7.2328 17.3886 7.0603 17.1333 7.10277C16.878 7.14534 16.7055 7.38684 16.748 7.64221L17.1258 9.90857H16.7915L15.3156 6.71062C14.5995 5.15872 14.9438 3.3178 16.1725 2.12966L16.2349 2.06924C17.8043 0.551797 20.2628 0.551797 21.8321 2.06924C23.0943 3.28972 23.4208 5.16786 22.6447 6.74277Z" fill="black"/>
<path d="M6.28046 15.0029V12.9359C6.28046 12.5524 6.04871 12.2223 5.71805 12.0774V9.18127C5.71805 8.66204 5.43375 8.1872 4.97607 7.9419L3.47625 7.13827C3.03638 6.90263 2.51817 6.91482 2.08992 7.17127C1.66172 7.42754 1.40611 7.87852 1.40611 8.3776V12.0773C1.07545 12.2223 0.843704 12.5523 0.843704 12.9359V15.0028C0.370641 15.05 0 15.4502 0 15.9355V22.5909C0 23.3662 0.630751 23.997 1.40606 23.997H5.71801C6.49332 23.997 7.12407 23.3662 7.12407 22.5909V15.9355C7.12412 15.4502 6.75347 15.0501 6.28046 15.0029ZM2.34347 8.3776C2.34347 8.13784 2.50289 8.01652 2.57138 7.97546C2.63991 7.93445 2.82216 7.85129 3.03347 7.96449L4.53329 8.76812C4.68586 8.84987 4.7806 9.00816 4.7806 9.18123V11.9985H2.34347V8.3776ZM1.78102 12.9359H1.87477H5.24935H5.3431V14.9981H1.78106V12.9359H1.78102ZM6.18671 22.591C6.18671 22.8494 5.97647 23.0597 5.71801 23.0597H4.87435V19.4976C4.87435 19.2388 4.66454 19.0289 4.40564 19.0289C4.1468 19.0289 3.93694 19.2388 3.93694 19.4976V23.0597H1.40606C1.14764 23.0597 0.93736 22.8494 0.93736 22.591V15.9355H6.18671V22.591Z" fill="black"/>
<path d="M4.73699 17.3852C4.6498 17.298 4.52938 17.2479 4.40563 17.2479C4.28235 17.2479 4.16146 17.298 4.07427 17.3852C3.98708 17.4724 3.93693 17.5933 3.93693 17.7166C3.93693 17.8398 3.98708 17.9607 4.07427 18.0479C4.16146 18.1351 4.28235 18.1853 4.40563 18.1853C4.52938 18.1853 4.6498 18.1351 4.73699 18.0479C4.82418 17.9607 4.87433 17.8398 4.87433 17.7166C4.87433 17.5933 4.82418 17.4723 4.73699 17.3852Z" fill="black"/>
<path d="M13.7795 11.5298H11.6235V6.93666H12.4209C12.6797 6.93666 12.8896 6.7268 12.8896 6.46796C12.8896 6.20911 12.6798 5.99925 12.4209 5.99925H11.6235V5.43685H12.4209C12.6797 5.43685 12.8896 5.22699 12.8896 4.96814C12.8896 4.7093 12.6798 4.49944 12.4209 4.49944H11.6235V3.93703H12.4209C12.6797 3.93703 12.8896 3.72717 12.8896 3.46833C12.8896 3.20949 12.6798 2.99963 12.4209 2.99963H11.6235V2.43722H12.4209C12.6797 2.43722 12.8896 2.22736 12.8896 1.96852C12.8896 1.70967 12.6798 1.49981 12.4209 1.49981H11.6235V0.937407H12.4209C12.6797 0.937407 12.8896 0.727547 12.8896 0.468703C12.8896 0.20986 12.6798 0 12.4209 0H9.88887C9.63002 0 9.42017 0.20986 9.42017 0.468703C9.42017 0.727547 9.62998 0.937407 9.88887 0.937407H10.6862V1.49981H9.88882C9.62998 1.49981 9.42012 1.70967 9.42012 1.96852C9.42012 2.22736 9.62993 2.43722 9.88882 2.43722H10.6862V2.99963H9.88882C9.62998 2.99963 9.42012 3.20949 9.42012 3.46833C9.42012 3.72717 9.62993 3.93703 9.88882 3.93703H10.6862V4.49944H9.88882C9.62998 4.49944 9.42012 4.7093 9.42012 4.96814C9.42012 5.22699 9.62993 5.43685 9.88882 5.43685H10.6862V5.99925H9.88882C9.62998 5.99925 9.42012 6.20911 9.42012 6.46796C9.42012 6.7268 9.62993 6.93666 9.88882 6.93666H10.6862V11.5298H8.5302C8.27135 11.5298 8.06149 11.7397 8.06149 11.9986V17.234C8.06149 19.5393 8.69309 21.7999 9.88803 23.7713C9.97301 23.9114 10.1249 23.997 10.2889 23.997H12.0208C12.1848 23.997 12.3367 23.9114 12.4217 23.7713C13.6166 21.7998 14.2482 19.5393 14.2482 17.234V11.9985C14.2482 11.7397 14.0383 11.5298 13.7795 11.5298ZM13.3108 17.2339C13.3108 19.2804 12.773 21.2889 11.7534 23.0596H10.5562C9.5366 21.2889 8.99881 19.2804 8.99881 17.2339V14.5294H11.8232C12.082 14.5294 12.2919 14.3196 12.2919 14.0607C12.2919 13.8019 12.0821 13.592 11.8232 13.592H8.99881V12.4672H13.3107V17.2339H13.3108Z" fill="black"/>
<path d="M19.8289 19.0936C19.7417 19.0064 19.6208 18.9562 19.4975 18.9562C19.3742 18.9562 19.2533 19.0063 19.1662 19.0936C19.079 19.1808 19.0288 19.3016 19.0288 19.4249C19.0288 19.5482 19.079 19.6691 19.1662 19.7563C19.2533 19.8439 19.3742 19.8936 19.4975 19.8936C19.6208 19.8936 19.7417 19.8439 19.8289 19.7563C19.9161 19.6691 19.9662 19.5486 19.9662 19.4249C19.9662 19.3016 19.9161 19.1808 19.8289 19.0936Z" fill="black"/>
</svg>
