<svg width="25" height="25" viewBox="0 0 25 25" fill="none" xmlns="http://www.w3.org/2000/svg">
<path d="M15.326 16.781C15.0583 16.781 14.841 16.9983 14.841 17.266C14.841 17.5337 15.0583 17.751 15.326 17.751C15.5937 17.751 15.811 17.5337 15.811 17.266C15.811 16.9983 15.5937 16.781 15.326 16.781Z" fill="black"/>
<path d="M22.407 0H2.425C1.08784 0 0 1.08784 0 2.425V17.266C0 18.6031 1.08784 19.691 2.425 19.691H9.99099V21.922H9.50599C8.85844 21.922 8.24973 22.1743 7.79144 22.6324C7.33334 23.0907 7.08099 23.6994 7.08099 24.347C7.08099 24.6149 7.2981 24.832 7.56599 24.832H17.266C17.5339 24.832 17.751 24.6149 17.751 24.347C17.751 23.0098 16.6631 21.922 15.326 21.922H14.841V19.691H22.407C23.7441 19.691 24.832 18.6031 24.832 17.266V2.425C24.832 1.08784 23.7441 0 22.407 0ZM2.425 0.969999H22.407C23.2093 0.969999 23.862 1.62266 23.862 2.425V14.841H21.631V3.686C21.631 3.41811 21.4139 3.201 21.146 3.201H17.266C16.9981 3.201 16.781 3.41811 16.781 3.686V14.841H14.3533C14.3482 14.3393 14.3351 13.8448 14.3143 13.3651C14.2294 11.3899 14.036 10.0668 13.9354 9.48477C14.9361 8.74799 15.2093 7.38241 14.5975 6.32148L12.9165 3.40996C12.8298 3.25992 12.6697 3.16746 12.4965 3.16746C12.3232 3.16746 12.1631 3.25992 12.0765 3.40996L10.3947 6.32166C9.81802 7.32198 10.0224 8.61764 10.9284 9.38228C10.8234 9.96257 10.6116 11.3331 10.5196 13.3642C10.4978 13.849 10.4839 14.3439 10.4786 14.841H8.05099V7.56599C8.05099 7.48907 8.0328 7.41898 8.00306 7.35665C8.00173 7.35418 8.00097 7.35153 7.99984 7.34907L6.05984 3.46907C5.97762 3.30482 5.80976 3.201 5.62599 3.201C5.44222 3.201 5.27437 3.30482 5.19215 3.46907L3.25215 7.34907C3.25101 7.35153 3.25025 7.35418 3.24912 7.35665C3.2188 7.41954 3.201 7.49078 3.201 7.56599V14.841H0.969999V2.425C0.969999 1.62266 1.62266 0.969999 2.425 0.969999ZM17.751 14.841V4.17099H20.661V5.14099H20.176C19.9081 5.14099 19.691 5.35811 19.691 5.62599C19.691 5.89388 19.9081 6.11099 20.176 6.11099H20.661V7.56599H20.176C19.9081 7.56599 19.691 7.7831 19.691 8.05099C19.691 8.31888 19.9081 8.53599 20.176 8.53599H20.661V9.99099H20.176C19.9081 9.99099 19.691 10.2081 19.691 10.476C19.691 10.7439 19.9081 10.961 20.176 10.961H20.661V12.901H20.176C19.9081 12.901 19.691 13.1181 19.691 13.386C19.691 13.6539 19.9081 13.871 20.176 13.871H20.661V14.841H17.751ZM12.4965 9.95745C12.6727 9.95745 12.8481 9.93718 13.0198 9.89929C13.1098 10.4762 13.242 11.4969 13.3202 12.901H11.5149C11.597 11.4979 11.7355 10.4612 11.8311 9.86481C12.046 9.92601 12.2697 9.95745 12.4965 9.95745ZM12.4965 8.98746C11.388 8.98746 10.6732 7.78102 11.2349 6.80647L12.4965 4.62246L13.7573 6.80628C14.317 7.77685 13.612 8.98746 12.4965 8.98746ZM11.4704 13.871H13.3629C13.3731 14.1896 13.3801 14.5138 13.3835 14.841H11.4486C11.4522 14.5159 11.4596 14.1917 11.4704 13.871ZM6.11099 14.841V8.05099H7.08099V14.841H6.11099ZM4.17099 14.841V8.05099H5.14099V14.841H4.17099ZM4.47071 7.08099L5.62599 4.77042L6.78128 7.08099H4.47071ZM16.6978 23.862H8.13359C8.20483 23.6598 8.32115 23.4745 8.47726 23.3182C8.75235 23.0433 9.11761 22.892 9.50599 22.892H15.326C15.9584 22.892 16.4977 23.2974 16.6978 23.862ZM13.871 21.922H10.961V19.691H13.871V21.922ZM22.407 18.721H2.425C1.62266 18.721 0.969999 18.0683 0.969999 17.266V15.811H23.862V17.266C23.862 18.0683 23.2093 18.721 22.407 18.721Z" fill="black"/>
<path d="M13.386 16.781H10.476C10.2081 16.781 9.99099 16.9981 9.99099 17.266C9.99099 17.5339 10.2081 17.751 10.476 17.751H13.386C13.6539 17.751 13.871 17.5339 13.871 17.266C13.871 16.9981 13.6539 16.781 13.386 16.781Z" fill="black"/>
</svg>
