<svg width="390" height="408" viewBox="0 0 390 408" fill="none" xmlns="http://www.w3.org/2000/svg">
<rect x="32" width="326" height="341" rx="24" fill="#C2D9F0"/>
<path d="M221.558 193.969H196.105V203.788H221.558V193.969Z" fill="#F7C689"/>
<path d="M208.8 134.99C216.439 134.99 222.632 128.698 222.632 120.936C222.632 113.173 216.439 106.881 208.8 106.881C201.161 106.881 194.968 113.173 194.968 120.936C194.968 128.698 201.161 134.99 208.8 134.99Z" fill="#4B4065"/>
<path d="M217.642 250.702H177.032L173.495 271.046C189.6 268.158 204.821 261.163 217.642 250.702Z" fill="#EF749B"/>
<path opacity="0.7" d="M163.2 329.255L176.968 250.702H238.168L251.368 329.255H163.2Z" fill="#EF749B"/>
<path d="M170.379 365L186.541 273H258.34L273.788 365H170.379Z" fill="#F7C689"/>
<path d="M200.914 273C200.652 260.547 210.199 250.224 222.159 250.005C234.119 249.732 244.033 259.673 244.242 272.126C244.242 272.399 244.242 272.727 244.242 272.945" stroke="#F27932" stroke-width="3" stroke-miterlimit="10" stroke-linecap="round" stroke-linejoin="round"/>
<path d="M223.876 302.894L226.422 310.06C226.994 311.784 228.604 313.023 230.475 313.131L237.904 313.562C240.398 313.669 242.373 315.932 242.269 318.465C242.165 319.812 241.593 321.051 240.606 321.967L234.787 326.762C233.384 327.893 232.813 329.833 233.228 331.665L235.203 339.046C235.878 341.524 234.423 344.164 232.033 344.811C230.734 345.134 229.488 344.919 228.396 344.218L222.162 340.016C220.655 338.992 218.681 338.992 217.226 340.016L210.991 344.218C208.913 345.673 206.055 345.026 204.652 342.871C203.977 341.74 203.769 340.285 204.081 339.1L206.055 331.718C206.575 329.887 205.951 327.947 204.496 326.816L198.677 322.021C196.703 320.404 196.391 317.387 198.002 315.34C198.781 314.316 200.08 313.616 201.379 313.616L208.809 313.185C210.575 313.077 212.186 311.838 212.861 310.114L215.407 302.948C216.394 300.577 218.992 299.338 221.33 300.362C222.473 300.847 223.461 301.762 223.876 302.894Z" fill="#F27932"/>
<path d="M193.263 249.996C193.263 242.166 199.516 235.813 207.221 235.813C214.926 235.813 221.179 242.166 221.179 249.996" stroke="#231F20" stroke-miterlimit="10"/>
<path d="M50.5264 344.4L66.0001 256.221H134.59L149.368 344.4H50.5264Z" fill="#FBD7AD"/>
<path d="M84.2527 255.451C84.2527 246.659 91.2632 239.535 99.9158 239.535C108.568 239.535 115.579 246.659 115.579 255.451" fill="white"/>
<path d="M84.2527 255.451C84.2527 246.659 91.2632 239.535 99.9158 239.535C108.568 239.535 115.579 246.659 115.579 255.451" stroke="#B9C6E4" stroke-miterlimit="10"/>
<path d="M221.053 346.529L236.905 256.488H306.947L322.105 346.529H221.053Z" fill="white" stroke="#B9C6E4" stroke-miterlimit="10"/>
<path d="M255.537 257.718C255.726 248.733 263.053 241.61 271.895 241.738C280.484 241.931 287.432 248.926 287.621 257.718" fill="white"/>
<path d="M255.537 257.718C255.726 248.733 263.053 241.61 271.895 241.738C280.484 241.931 287.432 248.926 287.621 257.718" stroke="#B9C6E4" stroke-miterlimit="10"/>
<path d="M103.39 349.13L112.99 294.322H155.621L164.842 349.13H103.39Z" fill="white" stroke="#EF749B" stroke-miterlimit="10"/>
<path d="M124.358 293.809C124.358 288.354 128.716 283.926 134.084 283.926C139.453 283.926 143.811 288.354 143.811 293.809" stroke="#EF749B" stroke-miterlimit="10"/>
<path d="M177.853 333.94C177.726 334.581 181.326 347.288 182.905 352.615C183.347 354.091 183.032 355.631 182.147 356.851L155.937 391.186L155.811 390.736C154.737 386.565 155.053 382.137 156.758 378.158L163.453 362.563L158.779 341.577" fill="#F7C689"/>
<path d="M84.9474 229.267L79.2632 240.626L55.7685 247.557C52.2948 248.905 49.3264 251.279 47.3053 254.424L47.1158 254.745H90.1895C93.0948 254.617 95.6843 252.884 96.8211 250.188L105.284 229.267" fill="#F7C689"/>
<path d="M138.947 110.026C140.211 114.518 165.347 184.856 165.347 184.856L141.411 181.455L123.474 114.004" fill="#F7C689"/>
<path d="M200.716 136.787C200.716 136.787 199.074 152.318 196.232 156.426C196.232 156.426 203.432 165.282 211.895 157.26L209.621 135.311" fill="#F7C689"/>
<path d="M196.232 154.179C196.232 154.179 183.726 146.799 176.274 152.447C168.821 158.094 156.505 193.841 156.505 193.841L171.916 202.184L196.232 154.179Z" fill="#91DDCF"/>
<path d="M196.232 199.232C196.232 199.232 207.347 206.869 221.432 199.232C221.432 199.232 233.242 231.128 223.137 241.974C205.2 261.227 161.116 257.184 161.116 257.184L178.926 334.581L158.084 344.336L129.032 258.66C125.874 249.29 130.547 239.086 139.705 235.556L185.368 217.971L196.232 199.232Z" fill="#4B4065"/>
<path d="M196.232 207.126C198 205.778 157.958 166.373 142.674 151.42C139.011 147.826 133.958 146.157 128.905 146.799C123.284 147.569 118.358 151.163 115.895 156.361L80.8422 231.128H106.674L131.937 183.123L167.621 231.128H196.168L196.232 207.126Z" fill="#4B4065"/>
<path d="M162.758 87.3068C164.147 90.9007 168.063 92.826 171.726 91.6709C175.579 90.4515 179.684 92.6977 180.884 96.6125C181.453 98.602 181.263 100.72 180.253 102.453C178.358 105.79 179.305 110.09 182.463 112.272C185.811 114.582 186.632 119.203 184.358 122.604C183.221 124.273 181.453 125.428 179.432 125.749C175.642 126.327 172.989 129.792 173.242 133.643C173.558 137.75 170.526 141.28 166.484 141.601C164.463 141.729 162.442 141.023 160.989 139.611C158.211 136.98 153.853 136.98 151.074 139.611C148.105 142.371 143.495 142.242 140.716 139.226C139.326 137.686 138.632 135.696 138.758 133.643C139.011 129.792 136.358 126.327 132.568 125.749C128.589 125.107 125.811 121.321 126.442 117.278C126.758 115.224 127.895 113.427 129.537 112.272C132.695 110.09 133.642 105.79 131.747 102.453C129.726 98.8587 130.989 94.3663 134.463 92.3126C136.232 91.2858 138.253 91.0933 140.211 91.6709C143.874 92.826 147.789 90.9007 149.179 87.3068C150.632 83.4562 154.926 81.595 158.653 83.0711C160.484 83.8412 162 85.3815 162.758 87.3068Z" fill="#F27932"/>
<path d="M125.432 121.257L122.779 111.117C122.21 108.87 122.211 106.432 122.716 104.185C122.968 102.966 124.042 102.132 125.242 102.132H126.253L125.937 100.463C125.81 99.8855 125.937 99.2438 126.253 98.6662C126.695 97.896 127.516 97.4468 128.4 97.4468H128.589L128.463 96.805C128.337 95.9066 128.653 95.0081 129.347 94.4305C129.979 93.9171 130.8 93.7245 131.558 93.9171L132.821 94.2379L145.895 99.0512C145.895 99.0512 144.632 102.453 141.789 101.875C141.789 101.875 141.032 104.891 138.568 104.763C136.105 104.635 135.789 104.185 135.789 104.185L138.568 105.469C138.568 105.469 137.937 108.485 136.042 108.1C134.147 107.715 129.663 106.303 129.663 106.303L133.389 107.394" fill="#F7C689"/>
<path d="M196.232 153.217C196.232 153.217 185.116 168.106 185.937 173.433C186.758 178.759 195.474 182.546 195.474 182.546L196.232 196.023C196.232 196.023 206.147 204.494 221.432 196.023L225.726 170.095C225.726 170.095 218.842 164.833 211.958 153.987C211.958 153.987 201.474 159.314 196.232 153.217Z" fill="#91DDCF"/>
<path d="M210.253 141.087L209.684 135.311L200.716 136.723C200.716 136.723 200.526 138.584 200.147 141.151C200.653 142.178 201.41 143.013 202.358 143.59C204 144.489 206.021 144.168 207.6 143.205C208.611 142.628 209.495 141.922 210.253 141.087Z" fill="#F27932"/>
<path d="M202.674 114.197C195.916 119.203 195.221 125.492 195.474 131.332C195.726 137.172 201.537 140.638 204.316 140.253C207.095 139.868 216.505 135.825 216.632 123.695C216.758 111.566 206.4 111.437 202.674 114.197Z" fill="#F7C689"/>
<path d="M215.495 126.647C216.189 125.621 217.389 125.043 218.589 125.043C219.853 125.107 220.926 125.813 221.495 126.968C221.937 128.123 221.684 129.471 220.863 130.37C219.284 132.167 216.442 131.653 215.874 131.525C215.242 131.397 214.8 130.947 214.547 130.37" fill="#F7C689"/>
<path d="M97.0105 254.681H46.6105V256.221H97.0105V254.681Z" fill="#F27932"/>
<path d="M65.2421 254.681C65.1789 250.188 63.2842 246.53 60 243.514L63.4105 242.936C66.6947 245.953 68.5895 250.188 68.6526 254.617" stroke="white" stroke-miterlimit="10"/>
<path d="M164.021 226.25L196.295 213.928" stroke="#4B4065" stroke-miterlimit="10"/>
<path d="M194.589 202.954L185.368 218.036" stroke="#4B4065" stroke-miterlimit="10"/>
<path d="M204.189 182.417C208.926 186.011 215.684 185.049 219.221 180.235C220.042 179.144 220.611 177.861 220.989 176.513" stroke="#4B4065" stroke-miterlimit="10"/>
<path d="M218.021 122.219C212.653 121.706 207.789 117.213 205.768 112.208C213.221 111.566 217.642 116.251 218.021 122.219Z" fill="#4B4065"/>
<path d="M83.3684 232.283L102.568 236.005L104.589 231.128H83.9368L83.3684 232.283Z" fill="#4B4065"/>
<path d="M80.8421 237.032L101.053 241.204L99.0315 246.851L78.3789 240.177L80.8421 237.032Z" stroke="white" stroke-miterlimit="10"/>
<path d="M89.3053 254.36L92.1474 244.605L96 245.824V254.36H89.3053Z" stroke="white" stroke-miterlimit="10"/>
<path d="M141.789 101.875L131.053 98.1527" stroke="#F27932" stroke-width="0.75" stroke-miterlimit="10"/>
<path d="M137.684 104.827L128.905 101.811" stroke="#F27932" stroke-width="0.75" stroke-miterlimit="10"/>
<path d="M135.411 108.164L128.337 105.726" stroke="#F27932" stroke-width="0.75" stroke-miterlimit="10"/>
<path d="M244.547 134.156H386.4C380.211 125.813 372.821 118.754 362.842 116.443C360.063 115.801 357.158 115.416 354.379 116.122C351.6 116.828 349.074 118.882 348.379 121.706C337.705 105.276 319.453 94.2379 300.442 90.9007C295.011 89.9381 289.137 89.6814 284.211 92.1201C279.347 94.623 276 99.3721 275.305 104.827C274.674 110.282 276.758 115.737 280.863 119.395C278.337 113.427 269.432 110.667 264.821 115.224C261.663 118.369 260.905 123.182 258.568 126.968C255.6 131.653 249.979 134.156 244.547 134.156Z" fill="white" stroke="#C2D9F0" stroke-miterlimit="10"/>
<path d="M296.147 270.404H246.632V300.247H296.147V270.404Z" fill="#FBD7AD"/>
<path d="M110.968 301.723C112.105 301.402 113.242 300.953 114.253 300.311C113.242 299.669 112.105 299.156 110.968 298.899C109.768 298.578 108.884 297.615 108.568 296.46C108.253 295.241 107.81 294.15 107.179 293.123C106.547 294.15 106.042 295.305 105.789 296.46C105.474 297.679 104.526 298.578 103.389 298.899C102.189 299.22 101.116 299.669 100.105 300.311C101.116 300.953 102.253 301.466 103.389 301.723C104.589 302.044 105.474 303.006 105.789 304.226C106.105 305.381 106.547 306.536 107.179 307.563C107.81 306.536 108.316 305.381 108.568 304.226C108.821 303.006 109.768 302.044 110.968 301.723Z" fill="white"/>
<path d="M337.453 242.522L337.453 242.522L337.463 242.524C339.292 242.962 341.077 243.687 342.734 244.659C341.074 245.59 339.286 246.323 337.451 246.817C335.062 247.442 333.222 249.315 332.61 251.734L332.61 251.734L332.608 251.744C332.178 253.599 331.468 255.407 330.516 257.086C329.604 255.405 328.885 253.592 328.4 251.733C327.787 249.314 325.947 247.441 323.558 246.817L323.558 246.817L323.548 246.814C321.718 246.377 319.933 245.651 318.277 244.68C319.936 243.748 321.725 243.015 323.56 242.521C325.949 241.896 327.788 240.023 328.401 237.604L328.401 237.604L328.403 237.594C328.832 235.74 329.543 233.931 330.495 232.252C331.407 233.934 332.126 235.746 332.61 237.606C333.223 240.025 335.063 241.897 337.453 242.522Z" fill="white" stroke="#C2D9F0"/>
<path d="M47.621 192.814L48.3789 176.128L34.6105 185.049L30.5052 177.925L45.0316 170.352L30.5052 162.779L34.6105 155.655L48.3789 164.769L47.621 148.083H55.7052L54.9474 164.769L68.7789 155.591L72.8842 162.715L58.2316 170.288L72.8842 177.861L68.7789 185.049L55.0105 176.128L55.7684 192.814H47.621Z" fill="white" stroke="#C2D9F0" stroke-miterlimit="10"/>
<path d="M153.853 125.107H149.874L157.958 101.554H162L153.853 125.107Z" fill="white"/>
<path d="M147.032 102.324C144.316 102.324 142.105 104.57 142.105 107.33C142.105 110.09 144.316 112.336 147.032 112.336C149.747 112.336 151.958 110.09 151.958 107.33C151.958 104.57 149.747 102.324 147.032 102.324ZM147.032 109.32C145.958 109.32 145.074 108.421 145.074 107.33C145.074 106.239 145.958 105.341 147.032 105.341C148.105 105.341 148.989 106.239 148.989 107.33C149.053 108.421 148.105 109.32 147.032 109.32Z" fill="white"/>
<path d="M164.842 115.16C162.126 115.16 159.916 117.406 159.916 120.166C159.916 122.925 162.126 125.171 164.842 125.171C167.558 125.171 169.768 122.925 169.768 120.166C169.705 117.342 167.495 115.16 164.842 115.16ZM164.842 122.155C163.768 122.155 162.884 121.257 162.884 120.166C162.884 119.075 163.768 118.176 164.842 118.176C165.916 118.176 166.8 119.075 166.8 120.166C166.8 121.257 165.916 122.155 164.842 122.155Z" fill="white"/>
<path d="M186.453 352.602L155.907 393.419L157.114 394.351L187.659 353.534L186.453 352.602Z" fill="#F27932"/>
<path d="M167.179 378.35C163.642 375.655 159.6 375.013 155.305 375.847L156.947 372.767C161.242 371.932 165.726 372.959 169.263 375.591" stroke="white" stroke-miterlimit="10"/>
<path d="M159.537 344.978L179.116 339.266L178.042 335.031L159.284 343.823L159.537 344.978Z" fill="#4B4065"/>
<path d="M161.747 354.99L179.368 340.165L181.453 346.262L162.758 358.904L161.747 354.99Z" stroke="white" stroke-miterlimit="10"/>
<path d="M181.453 358.648L175.579 350.433L178.8 348.059L185.558 353.257L181.453 358.648Z" stroke="white" stroke-miterlimit="10"/>
<path d="M89.7474 317.767C90.6194 317.767 91.3264 317.049 91.3264 316.162C91.3264 315.276 90.6194 314.558 89.7474 314.558C88.8754 314.558 88.1685 315.276 88.1685 316.162C88.1685 317.049 88.8754 317.767 89.7474 317.767Z" fill="white"/>
<path d="M319.642 266.297C320.968 266.297 322.042 265.205 322.042 263.858C322.042 262.511 320.968 261.419 319.642 261.419C318.317 261.419 317.242 262.511 317.242 263.858C317.242 265.205 318.317 266.297 319.642 266.297Z" fill="#C2D9F0"/>
<path d="M157.579 217.586L185.368 218.036L164.021 226.25L157.579 217.586Z" fill="#4B4065"/>
<path d="M241.768 317.703C241.768 322.195 238.232 325.789 233.811 325.789C229.453 325.789 225.853 322.195 225.853 317.703" fill="white"/>
<path d="M92.2737 256.221L64.5474 264.243L66 256.221H92.2737Z" fill="#4B4065"/>
<path d="M281.368 195.445C281.053 187.551 288.063 180.171 295.832 180.235C303.6 180.299 310.484 187.808 310.042 195.702C309.789 200.002 306.695 204.623 302.463 204.366C298.358 204.109 295.895 199.296 295.832 195.124C295.705 185.241 306 176.77 315.474 178.823" stroke="#4B4065" stroke-miterlimit="10"/>
<path d="M204.126 123.246L201.347 127.418L202.484 128.38" stroke="#F27932" stroke-miterlimit="10" stroke-linecap="round" stroke-linejoin="round"/>
<path d="M216.632 205.393C216.632 205.393 214.295 216.367 225.537 221.95" stroke="#4B4065" stroke-miterlimit="10" stroke-linecap="round" stroke-linejoin="round"/>
<path d="M217.895 112.785C223.057 112.785 227.242 108.533 227.242 103.287C227.242 98.0412 223.057 93.7887 217.895 93.7887C212.732 93.7887 208.547 98.0412 208.547 103.287C208.547 108.533 212.732 112.785 217.895 112.785Z" fill="#4B4065"/>
<path d="M201.347 132.167C201.347 132.167 204 133.322 206.716 131.268" stroke="#4B4065" stroke-miterlimit="10" stroke-linecap="round" stroke-linejoin="round"/>
<path d="M215.242 157.581H195.158V146.735C195.158 146.093 195.663 145.58 196.295 145.58H214.105C214.737 145.58 215.242 146.093 215.242 146.735V157.581Z" fill="#91DDCF"/>
<path d="M232.358 220.089C232.358 220.089 232.232 246.98 235.516 253.141C238.547 258.916 256.421 255.836 258.063 256.221C259.768 256.542 267.726 259.622 270.253 258.082C272.084 256.991 261.347 251.408 255.6 248.52C253.832 247.621 248.463 248.52 246.632 244.669C243.284 237.546 247.326 215.533 247.326 215.533" fill="#F7C689"/>
<path d="M225.537 170.16C226.105 171.7 225.853 173.946 225.979 175.55C226.295 180.685 226.737 185.819 227.179 190.953C228.189 202.441 229.326 213.928 230.084 225.416C230.526 231.898 252.505 226.315 252.316 221.052C251.937 210.206 245.432 199.296 245.432 188.45C245.432 179.786 245.495 171.058 245.684 162.33C245.811 156.233 244.547 142.82 231.221 142.884C227.747 142.884 224.842 145.515 221.811 147.312C219.789 148.532 211.958 153.987 211.958 153.987C213.853 157.324 216.126 160.405 218.653 163.293C222.568 167.592 225.474 169.839 225.537 170.16Z" fill="#91DDCF"/>
<path d="M224.653 162.202L226.484 182.289" stroke="#4B4065" stroke-miterlimit="10"/>
<path d="M244.421 250.702C244.421 250.702 248.526 253.333 253.326 253.141C258.126 252.948 257.81 256.157 256.8 256.221" stroke="#F27932" stroke-width="0.75" stroke-miterlimit="10"/>
<path d="M256.484 251.472L269.116 258.531" stroke="#F27932" stroke-width="0.75" stroke-miterlimit="10"/>
<path d="M211.516 120.101C210.884 119.267 210 118.689 208.989 118.497C207.979 118.304 206.905 118.561 205.958 119.203C207.979 119.524 209.558 119.78 211.516 120.101Z" fill="#4B4065"/>
<path d="M205.958 119.395C205.832 119.331 205.705 119.267 205.768 119.139C205.768 119.074 205.832 119.01 205.895 118.946C206.779 118.304 207.979 118.048 209.053 118.24C210.126 118.433 211.074 119.074 211.768 119.973C211.832 120.101 211.832 120.166 211.705 120.294C211.642 120.358 211.579 120.358 211.516 120.358C210.505 120.23 209.621 120.037 208.737 119.909C207.853 119.78 206.905 119.524 205.958 119.395ZM209.053 118.754L208.863 118.689C208.105 118.561 207.284 118.689 206.526 119.074L208.674 119.46L210.884 119.845C210.505 119.267 209.81 118.882 209.053 118.754Z" fill="#4B4065"/>
<path d="M201.221 119.267C200.589 118.433 199.705 117.855 198.695 117.663C197.684 117.47 196.611 117.727 195.663 118.369C197.621 118.625 199.263 118.946 201.221 119.267Z" fill="#4B4065"/>
<path d="M195.6 118.561C195.474 118.497 195.347 118.433 195.41 118.304C195.41 118.24 195.474 118.176 195.537 118.112C196.421 117.47 197.621 117.213 198.695 117.406C199.768 117.598 200.716 118.24 201.41 119.139C201.474 119.267 201.474 119.331 201.347 119.46C201.284 119.524 201.221 119.524 201.158 119.524C200.147 119.395 199.263 119.203 198.379 119.074C197.495 118.946 196.61 118.689 195.6 118.561ZM198.695 117.919L198.505 117.855C197.747 117.727 196.926 117.855 196.168 118.24L198.316 118.625L200.526 119.01C200.147 118.369 199.516 118.048 198.695 117.919Z" fill="#4B4065"/>
<path d="M204.505 124.53C204.442 124.53 204.379 124.53 204.316 124.465C203.179 123.503 202.358 124.337 202.295 124.401C202.168 124.53 201.979 124.53 201.853 124.465C201.726 124.401 201.726 124.144 201.789 124.016C202.232 123.503 203.368 122.861 204.695 123.952C204.821 124.08 204.821 124.273 204.758 124.401C204.695 124.465 204.568 124.53 204.505 124.53Z" fill="#4B4065"/>
<path d="M207.789 128.444C205.579 128.188 203.937 126.07 204.253 123.824L204.442 122.348C204.568 121.385 205.389 120.743 206.337 120.871L211.074 121.449C212.021 121.577 212.653 122.412 212.526 123.374L212.337 124.85C212.084 127.097 210.063 128.701 207.789 128.444Z" fill="#4B4065"/>
<path d="M198 127.546C195.789 127.289 194.147 125.171 194.463 122.925L194.653 121.449C194.779 120.486 195.6 119.845 196.547 119.973L201.284 120.551C202.232 120.679 202.863 121.513 202.737 122.476L202.547 123.952C202.295 126.262 200.211 127.867 198 127.546Z" fill="#4B4065"/>
<path d="M216.189 128.829C216.379 128.765 217.516 126.84 220.232 127.61" stroke="#F27932" stroke-miterlimit="10" stroke-linecap="round" stroke-linejoin="round"/>
</svg>
